<?xml version="1.0" encoding="UTF-8"?>
<!DOCTYPE svg PUBLIC "-//W3C//DTD SVG 1.1//EN" "http://www.w3.org/Graphics/SVG/1.1/DTD/svg11.dtd">
<!-- Creator: CorelDRAW X8 -->
<svg xmlns="http://www.w3.org/2000/svg" xml:space="preserve" width="211.667mm" height="59.002mm" version="1.1" style="shape-rendering:geometricPrecision; text-rendering:geometricPrecision; image-rendering:optimizeQuality; fill-rule:evenodd; clip-rule:evenodd"
viewBox="0 0 21167 5900"
 xmlns:xlink="http://www.w3.org/1999/xlink">
 <defs>
  <style type="text/css">
   <![CDATA[
    .fil1 {fill:#D9DCD6}
    .fil0 {fill:white}
   ]]>
  </style>
 </defs>
 <g id="Layer_x0020_1">
  <metadata id="CorelCorpID_0Corel-Layer"/>
  <g id="_3183066840640">
   <polygon class="fil0" points="1349,3096 2759,3096 2759,4690 3378,4688 3379,1152 2759,1154 2752,2535 1346,2535 1346,1147 718,1148 718,4694 1346,4693 "/>
   <path class="fil1" d="M13059 3120c76,-770 1280,-730 1247,6l-1247 -6zm1814 461c425,-1515 -1662,-2103 -2325,-836 -310,592 -130,1442 303,1747 474,333 1324,346 1774,-13l-232 -444c-116,44 -179,137 -377,177 -456,92 -940,-38 -985,-631l1842 0z"/>
   <path class="fil0" d="M4980 2573c939,-274 993,1464 316,1651 -492,136 -728,-216 -771,-638 -48,-475 64,-899 455,-1013zm1383 1012c86,-827 -302,-1433 -1035,-1520 -814,-96 -1357,405 -1431,1129 -85,831 311,1448 1039,1536 838,100 1348,-393 1427,-1145z"/>
   <path class="fil1" d="M16330 2573c940,-273 993,1463 317,1651 -492,136 -730,-216 -772,-639 -46,-474 64,-899 455,-1012zm-1086 986c54,756 572,1254 1391,1175 746,-72 1135,-670 1083,-1484 -50,-773 -550,-1268 -1384,-1189 -737,71 -1149,680 -1090,1498z"/>
   <path class="fil0" d="M18808 4692c0,-448 0,-897 0,-1345 0,-194 -44,-487 68,-597 100,-99 281,-188 465,-189 497,-3 530,362 530,812 -1,441 0,882 0,1323l604 -4c0,-534 83,-1795 -137,-2183 -134,-236 -367,-411 -713,-447 -465,-47 -612,74 -866,260l-48 -64c-105,-182 44,-164 -507,-158l0 2596 604 -4z"/>
   <path class="fil1" d="M11931 2230c-1456,-579 -1972,438 -1485,990 296,335 798,366 964,623 163,251 -30,413 -297,418 -294,4 -420,-98 -609,-204 -50,53 -35,40 -71,119 -19,42 -28,64 -49,109 -38,84 -74,156 -97,254 235,70 293,171 623,195 238,18 489,2 691,-78 484,-190 586,-674 407,-1041 -176,-362 -621,-397 -984,-630 -199,-129 -170,-415 121,-446 311,-33 417,69 623,153l163 -462z"/>
   <path class="fil0" d="M7458 2321l-1 -217 -604 -5 0 2597 604 0c0,-471 -37,-1114 5,-1560 23,-239 158,-417 292,-503 233,-150 395,-43 607,29l239 -502c-199,-155 -664,-132 -906,-8 -113,57 -145,120 -236,169z"/>
   <polygon class="fil0" points="8796,2589 9124,2598 9124,4696 9738,4696 9738,2099 8795,2101 "/>
   <path class="fil0" d="M9334 1112c-430,138 -243,822 231,661 374,-127 222,-807 -231,-661z"/>
  </g>
 </g>
</svg>
